# xmcd CD database file
#
# Track frame offsets:
#	150
#	12272
#	21992
#	34112
#	44132
#	53477
#	66347
#	80567
#	91787
#	102557
#	110477
#	120422
#	131267
#	142562
#	154457
#	166127
#	177647
#	186092
#	197162
#	208532
#	220127
#	229322
#	241892
#	254462
#	264857
#
# Disc length: 3675 seconds
#
# Revision: 1
# Processed by: cddbd v1.5.2PL0 Copyright (c) Steve Scherf et al.
# Submitted via: CDex 1.51
#
DISCID=5d0e5919
DTITLE=Various Artist - Country Western  CD 22  1956
DYEAR=2012
DGENRE=Country
TTITLE0=Faron Young-You're Still Mine
TTITLE1=Jim Reeves-Waltzing On Top Of The World
TTITLE2=Sanford Clark-The Fool
TTITLE3=The Louvin Brothers-You're Running Wild
TTITLE4=Faron Young-I've Got Five Dollars And It's Saturday Night
TTITLE5=Carl Smith-Doorstep To Heaven
TTITLE6=Hank Snow-I Almost Lost My Mind
TTITLE7=Sonny James-The Cat Came Back
TTITLE8=Johnny Cash-Train Of Love
TTITLE9=Bobby Lord-Without Your Love
TTITLE10=Webb Pierce-We'll Find A Way
TTITLE11=Hank Locklin-Why Baby Why
TTITLE12=Don Gibson-I Ain't Gonna Waste My Time
TTITLE13=Kitty Wells and Red Foley-You And Me
TTITLE14=Marvin Rainwater-Get Off The Stool
TTITLE15=Wilburn Brothers-You're Not Play Love
TTITLE16=Marty Robbins-I'll Know You're Gone
TTITLE17=Wanda Jackson-I Gotta Know
TTITLE18=George Jones-Gonna Come Get You
TTITLE19=Louvin Brothers-Hoping That You're Hoping
TTITLE20=Faron Young-Turn Her Down
TTITLE21=Hank Snow-I'm Moving In
TTITLE22=Carl Smith-Wicked Lies
TTITLE23=Johnny Cash-There You Go
TTITLE24=Jim Reeves-My Lips Are Sealed
EXTD=YEAR: 2012
EXTT0=
EXTT1=
EXTT2=
EXTT3=
EXTT4=
EXTT5=
EXTT6=
EXTT7=
EXTT8=
EXTT9=
EXTT10=
EXTT11=
EXTT12=
EXTT13=
EXTT14=
EXTT15=
EXTT16=
EXTT17=
EXTT18=
EXTT19=
EXTT20=
EXTT21=
EXTT22=
EXTT23=
EXTT24=
PLAYORDER=
